<?xml version="1.0" encoding="UTF-8"?>
<svg
   xmlns="http://www.w3.org/2000/svg"
   xmlns:xlink="http://www.w3.org/1999/xlink"
   xmlns:sb="http://simplector.lyoshka.net/base/2.0"
   xmlns:sp="http://simplector.lyoshka.net/pro/2.0"
   width="24.0px"
   height="24.0px"
   viewBox="0 0 24.0 24.0"
   sb:fontSize="Custom"
   sb:pageOrientation="Portrait"
   version="1.1"
   sb:version="2.0.19"
   >
   <desc>Created in Simplector Pro</desc>
   <g
      id="87"

      sb:layerName="TextFigure-86"
      sb:layerVisible="true"
      sb:layerLocked="false"
      >
      <path
         id="89"
         transform="matrix(0.012844038,0.0,0.0,-0.011675825,3.25321,20.0)"
         fill="rgb(255,255,255)"
         fill-opacity="1.0"
         stroke-width="109.50001"
         stroke-linecap="butt"
         stroke-linejoin="miter"
         stroke-miterlimit="2.0"
         stroke="rgb(0,0,0)"
         stroke-opacity="0.0"
         d="
         M 132.7191 1.5057373 C 132.7191 1.5057373 136.0 1456.0 136.0 1456.0 C 136.0 1456.0 681.0 1455.9998 681.0 1455.9998 
         C 992.4285 1455.9998 1148.1427 1284.7057 1148.1427 1027.7645 C 1148.1427 770.82336 969.0 759.0 969.0 759.0 
         C 969.0 759.0 969.0 756.0 969.0 756.0 C 969.0 756.0 1225.9999 770.8235 1225.9999 428.23523 
         C 1225.9999 85.64697 992.4285 0.0 704.0 0.0 M 372.69452 596.5769 C 372.69452 596.5769 369.57147 256.94104 369.57147 256.94104 
         C 369.57147 256.94104 758.8571 256.94104 758.8571 256.94104 C 914.57135 256.94104 992.4285 314.03912 992.4285 428.23523 
         C 992.4285 542.43134 914.5714 599.52936 758.8571 599.5293 M 369.57147 856.47046 C 369.57147 856.47046 681.0 856.47046 681.0 856.47046 
         C 836.71423 856.47046 914.57135 913.5685 914.57135 1027.7645 C 914.57135 1141.9606 836.71423 1199.0586 681.0 1199.0586 
         C 681.0 1199.0586 369.57147 1199.0586 369.57147 1199.0586 
         "

         sb:layerName="[BLine] unit-0 (B)"
         sb:layerVisible="true"
         sb:layerLocked="false"
         sb:pathType="bline"
         >
      </path>
   </g>
   <sp:keyframes

      sp:step="100"
      sp:dur="10000"
      >
      <sp:keyframe

         sp:time="0"
         >
      </sp:keyframe>
   </sp:keyframes>
</svg>
